# xmcd
#
# Track frame offsets: 
#        150
#        11175
#        23167
#        31597
#        41995
#        54125
#        63460
#        74597
#        83712
#        94205
#        103470
#        114817
#
# Disc length: 1693 seconds
#
# Revision: 0
# Processed by: cddbd v1.4PL0 Copyright (c) Steve Scherf et al.
# Submitted via: ExactAudioCopy v0.90b3
#
DISCID=9b069b0c
DTITLE=George Jones - Homecoming In Heaven
DYEAR=1900
DGENRE=Country
TTITLE0=Someone's Watching Over You
TTITLE1=He Made Me Free
TTITLE2=Beacon In The Night
TTITLE3=Matthew Twenty-Four
TTITLE4=Peace In The Valley
TTITLE5=Wings Of A Dove
TTITLE6=Wandering Soul
TTITLE7=He's So Good To Me
TTITLE8=Magic Valley
TTITLE9=Kneel At The Feet Of Jesus
TTITLE10=Homecoming To Heaven
TTITLE11=My Cup Runneth Over
EXTD=
EXTT0=
EXTT1=
EXTT2=
EXTT3=
EXTT4=
EXTT5=
EXTT6=
EXTT7=
EXTT8=
EXTT9=
EXTT10=
EXTT11=
PLAYORDER=
